<svg height="24px" width="24px" xmlns="http://www.w3.org/2000/svg" viewBox="0 0 32 32"><path d="M16,16.39c3.968,0,7.195-3.228,7.195-7.195S19.968,2,16,2S8.805,5.228,8.805,9.195S12.032,16.39,16,16.39z M16,4 c2.864,0,5.195,2.331,5.195,5.195c0,2.865-2.331,5.195-5.195,5.195s-5.195-2.331-5.195-5.195C10.805,6.331,13.136,4,16,4z"/>
        <path d="M29.64,25.166c-0.292-2.612-1.174-5.11-2.551-7.225c-0.56-0.861-1.418-1.438-2.417-1.623c-1-0.184-2.016,0.047-2.853,0.653 c-1.706,1.237-3.718,1.891-5.819,1.891c-2.091,0-4.094-0.647-5.795-1.873c-0.838-0.604-1.892-0.843-2.894-0.655 c-0.995,0.186-1.85,0.759-2.405,1.613c-0.313,0.482-0.605,0.991-0.867,1.512c-0.888,1.764-1.452,3.684-1.678,5.708 c-0.09,0.801,0.17,1.608,0.713,2.216c0.555,0.619,1.349,0.975,2.178,0.975c0.001,0,0.002,0,0.003,0l21.486-0.001 c0.833,0,1.629-0.356,2.185-0.977C29.469,26.773,29.729,25.967,29.64,25.166z M27.436,26.046c-0.177,0.197-0.43,0.311-0.694,0.311 L5.254,26.357c0,0,0,0-0.001,0c-0.262,0-0.513-0.112-0.688-0.309c-0.097-0.107-0.253-0.336-0.216-0.66 c0.199-1.787,0.695-3.48,1.477-5.031c0.229-0.454,0.483-0.898,0.757-1.32c0.255-0.391,0.644-0.652,1.097-0.737 c0.105-0.02,0.212-0.029,0.318-0.029c0.366,0,0.727,0.117,1.038,0.342c2.043,1.472,4.451,2.25,6.964,2.25 c2.526,0,4.944-0.785,6.993-2.271c0.39-0.283,0.855-0.39,1.314-0.306c0.454,0.085,0.847,0.35,1.105,0.747 c1.207,1.854,1.981,4.052,2.238,6.355C27.688,25.711,27.532,25.938,27.436,26.046z"/></svg>