<svg height="24px" width="24px" xmlns="http://www.w3.org/2000/svg" viewBox="0 0 24 24"><path d="M9.9707,8.2471a1.5,1.5,0,0,0,.0176-1.6377L7.8633,3.27a.4993.4993,0,0,0-.58-.2055l-2.5288.8427A2.4955,2.4955,0,0,0,3.1533,7.0083a19.64,19.64,0,0,0,4.9946,7.8433,19.6472,19.6472,0,0,0,7.8433,4.9946,2.4284,2.4284,0,0,0,.7344.1142,2.5091,2.5091,0,0,0,2.3672-1.7148l.8427-2.5288a.5.5,0,0,0-.2055-.58l-3.3394-2.125a1.5024,1.5024,0,0,0-1.6377.0176l-1.0634.709a.4951.4951,0,0,1-.5337.0137,12.3352,12.3352,0,0,1-2.18-1.7286,12.3,12.3,0,0,1-1.7281-2.18.4943.4943,0,0,1,.0137-.5333Zm-.832-.5547L8.43,8.7559a1.4963,1.4963,0,0,0-.0313,1.6157,13.2878,13.2878,0,0,0,1.8706,2.3589,13.3985,13.3985,0,0,0,2.3589,1.8711,1.4992,1.4992,0,0,0,1.6162-.0313l1.0635-.709a.4989.4989,0,0,1,.5459-.0058l3.01,1.9155-.72,2.1582a1.488,1.488,0,0,1-1.85.9639A18.6419,18.6419,0,0,1,8.855,14.1445,18.6476,18.6476,0,0,1,4.1064,6.7056a1.4922,1.4922,0,0,1,.9644-1.85L7.229,4.1362l1.916,3.01A.5008.5008,0,0,1,9.1387,7.6924Z"/></svg>